# xmcd
#
# Track frame offsets:
# 150
# 13778
# 27259
# 41273
# 59164
# 73589
# 87293
# 102770
# 114393
# 127112
# 139047
# 155267
# 170817
# 195540
# 211497
# 228663
# 245760
# 267720
#
# Disc length: 3801 seconds
#
# Revision: 0
# Processed by: cddbd v1.5.2PL0 Copyright (c) Steve Scherf et al.
# Submitted via: Audion 3.0.2 (http://www.panic.com/audion/)
#
DISCID=0c0ed712
DTITLE=The Jacksons - Number 1s
DYEAR=1900
DGENRE=
TTITLE0=I Want You Back
TTITLE1=ABC
TTITLE2=The Love You Save
TTITLE3=I'll Be There
TTITLE4=Mama's Pearl
TTITLE5=Never Can Say Goodbye
TTITLE6=Got To Be There
TTITLE7=Rockin' Robin
TTITLE8=Ben
TTITLE9=Dancing Machine
TTITLE10=Let's Get Serious
TTITLE11=Enjoy Yourself
TTITLE12=Show You The Way To Go
TTITLE13=Blame It On The Boogie
TTITLE14=Shake Your Body (Down To The Ground)
TTITLE15=Lovely One
TTITLE16=This Place Hotel
TTITLE17=Can You Feel It
EXTD=
EXTT0=
EXTT1=
EXTT2=
EXTT3=
EXTT4=
EXTT5=
EXTT6=
EXTT7=
EXTT8=
EXTT9=
EXTT10=
EXTT11=
EXTT12=
EXTT13=
EXTT14=
EXTT15=
EXTT16=
EXTT17=
PLAYORDER=
